<svg width="131" height="71" viewBox="0 0 131 71" fill="none" xmlns="http://www.w3.org/2000/svg">
<g filter="url(#filter0_d_9_157)">
<path d="M4 10C4 4.47715 8.47715 0 14 0L117 0C122.523 0 127 4.47715 127 10V53C127 58.5228 122.523 63 117 63H14C8.47715 63 4 58.5228 4 53V10Z" fill="#D9D9D9"/>
<path d="M14 0.5L117 0.5C122.247 0.5 126.5 4.7533 126.5 10V53C126.5 58.2467 122.247 62.5 117 62.5H14C8.75329 62.5 4.5 58.2467 4.5 53V10C4.5 4.75329 8.75329 0.5 14 0.5Z" stroke="black"/>
</g>
<defs>
<filter id="filter0_d_9_157" x="0" y="0" width="131" height="71" filterUnits="userSpaceOnUse" color-interpolation-filters="sRGB">
<feFlood flood-opacity="0" result="BackgroundImageFix"/>
<feColorMatrix in="SourceAlpha" type="matrix" values="0 0 0 0 0 0 0 0 0 0 0 0 0 0 0 0 0 0 127 0" result="hardAlpha"/>
<feOffset dy="4"/>
<feGaussianBlur stdDeviation="2"/>
<feComposite in2="hardAlpha" operator="out"/>
<feColorMatrix type="matrix" values="0 0 0 0 0 0 0 0 0 0 0 0 0 0 0 0 0 0 0.25 0"/>
<feBlend mode="normal" in2="BackgroundImageFix" result="effect1_dropShadow_9_157"/>
<feBlend mode="normal" in="SourceGraphic" in2="effect1_dropShadow_9_157" result="shape"/>
</filter>
</defs>
</svg>
